# Blender v2.79 (sub 0) OBJ File: ''
# www.blender.org
mtllib sampleTexturedCube2.mtl
o Cube
v -1.000000 -1.000000 1.000000
v -1.000000 4.274161 1.000000
v -1.000000 -1.000000 -1.000000
v -1.000000 1.000000 -1.000000
v 1.000000 -1.000000 1.000000
v 1.000000 1.000000 1.000000
v 1.000000 -1.000000 -1.000000
v 1.000000 0.683970 -1.000000
vt 0.000000 0.725054
vt 0.333333 0.450108
vt 0.333333 0.725054
vt 0.666667 0.450108
vt 0.666667 0.725054
vt 0.333333 1.000000
vt 0.000000 0.725054
vt 0.333333 0.725054
vt 0.666667 0.450108
vt 1.000000 0.725054
vt 0.666667 0.725054
vt 0.666667 1.000000
vt 0.333334 1.000000
vt 0.338459 0.452671
vt 0.448828 0.632068
vt 0.000000 0.000000
vt 0.000000 1.000000
vt 1.000000 0.000000
vt 0.333334 0.000000
vn -1.0000 0.0000 0.0000
vn 0.0000 0.0000 -1.0000
vn 1.0000 0.0000 0.0000
vn 0.0000 0.0000 1.0000
vn 0.0000 -1.0000 0.0000
vn 0.1542 0.9759 -0.1542
vn 0.6491 0.3965 -0.6491
usemtl Material
s off
f 1/1/1 4/2/1 3/3/1
f 3/3/2 8/4/2 7/5/2
f 8/6/3 5/7/3 7/8/3
f 6/9/4 1/10/4 5/11/4
f 7/8/5 1/12/5 3/13/5
f 4/14/6 6/9/6 8/15/6
f 1/1/1 2/16/1 4/2/1
f 3/3/2 4/2/2 8/4/2
f 8/6/3 6/17/3 5/7/3
f 6/9/4 2/18/4 1/10/4
f 7/8/5 5/11/5 1/12/5
f 4/14/7 2/19/7 6/9/7
